<svg width="16" height="16" viewBox="0 0 16 16" fill="none" xmlns="http://www.w3.org/2000/svg">
<path d="M5.06 1H10.94C13.18 1 15 2.82 15 5.06V10.94C15 12.0168 14.5723 13.0495 13.8109 13.8109C13.0495 14.5723 12.0168 15 10.94 15H5.06C2.82 15 1 13.18 1 10.94V5.06C1 3.98322 1.42775 2.95054 2.18915 2.18915C2.95054 1.42775 3.98322 1 5.06 1ZM4.92 2.4C4.25165 2.4 3.61068 2.6655 3.13809 3.13809C2.6655 3.61068 2.4 4.25165 2.4 4.92V11.08C2.4 12.473 3.527 13.6 4.92 13.6H11.08C11.7483 13.6 12.3893 13.3345 12.8619 12.8619C13.3345 12.3893 13.6 11.7483 13.6 11.08V4.92C13.6 3.527 12.473 2.4 11.08 2.4H4.92ZM11.675 3.45C11.9071 3.45 12.1296 3.54219 12.2937 3.70628C12.4578 3.87038 12.55 4.09294 12.55 4.325C12.55 4.55706 12.4578 4.77962 12.2937 4.94372C12.1296 5.10781 11.9071 5.2 11.675 5.2C11.4429 5.2 11.2204 5.10781 11.0563 4.94372C10.8922 4.77962 10.8 4.55706 10.8 4.325C10.8 4.09294 10.8922 3.87038 11.0563 3.70628C11.2204 3.54219 11.4429 3.45 11.675 3.45ZM8 4.5C8.92826 4.5 9.8185 4.86875 10.4749 5.52513C11.1313 6.1815 11.5 7.07174 11.5 8C11.5 8.92826 11.1313 9.8185 10.4749 10.4749C9.8185 11.1313 8.92826 11.5 8 11.5C7.07174 11.5 6.1815 11.1313 5.52513 10.4749C4.86875 9.8185 4.5 8.92826 4.5 8C4.5 7.07174 4.86875 6.1815 5.52513 5.52513C6.1815 4.86875 7.07174 4.5 8 4.5ZM8 5.9C7.44305 5.9 6.9089 6.12125 6.51508 6.51508C6.12125 6.9089 5.9 7.44305 5.9 8C5.9 8.55695 6.12125 9.0911 6.51508 9.48492C6.9089 9.87875 7.44305 10.1 8 10.1C8.55695 10.1 9.0911 9.87875 9.48492 9.48492C9.87875 9.0911 10.1 8.55695 10.1 8C10.1 7.44305 9.87875 6.9089 9.48492 6.51508C9.0911 6.12125 8.55695 5.9 8 5.9Z" fill="white"/>
</svg>
