<svg width="16" height="16" viewBox="0 0 16 16" fill="none" xmlns="http://www.w3.org/2000/svg">
<path d="M3.95105 14V5.22841H1.16426V14H3.95105ZM2.55824 4.031C3.52984 4.031 4.13473 3.35744 4.13473 2.51569C4.11655 1.65476 3.52984 1 2.57671 1C1.62293 1 1 1.65476 1 2.51561C1 3.35737 1.60467 4.03092 2.53998 4.03092L2.55824 4.031ZM5.49357 14H8.28014V9.10207C8.28014 8.84026 8.29832 8.57777 8.37194 8.39077C8.57331 7.86676 9.03183 7.32434 9.80185 7.32434C10.81 7.32434 11.2135 8.12865 11.2135 9.30794V14H14V8.97063C14 6.27649 12.6254 5.02276 10.7919 5.02276C9.28877 5.02276 8.62859 5.90173 8.2618 6.5004H8.28035V5.22871H5.49372C5.53009 6.05159 5.49357 14 5.49357 14Z" fill="white"/>
</svg>
