<?xml version="1.0" standalone="no"?>
<!DOCTYPE svg PUBLIC "-//W3C//DTD SVG 20010904//EN"
 "http://www.w3.org/TR/2001/REC-SVG-20010904/DTD/svg10.dtd">
<svg version="1.0" xmlns="http://www.w3.org/2000/svg"
 width="260.000000pt" height="260.000000pt" viewBox="0 0 260.000000 260.000000"
 preserveAspectRatio="xMidYMid meet">
<metadata>
Created by potrace 1.14, written by Peter Selinger 2001-2017
</metadata>
<g transform="translate(0.000000,260.000000) scale(0.100000,-0.100000)"
fill="#000000" stroke="none">
<path d="M655 1564 c-22 -8 -57 -28 -77 -45 l-38 -30 0 41 0 40 -145 0 -145 0
2 -272 3 -273 143 -3 142 -3 0 156 c0 152 1 156 25 180 30 31 92 34 126 6 23
-19 24 -25 27 -180 l3 -161 140 0 139 0 0 146 c0 146 6 176 39 201 25 20 85
15 115 -8 l26 -20 0 -160 0 -159 140 0 140 0 0 213 c0 242 -4 259 -79 312 -41
29 -47 30 -149 30 -115 0 -150 -11 -219 -69 l-30 -25 -42 39 c-22 21 -58 44
-78 49 -53 15 -161 12 -208 -5z"/>
<path d="M1600 1366 c0 -217 4 -243 48 -290 44 -46 97 -66 183 -66 88 0 148
18 201 60 l37 30 3 -38 3 -37 140 0 140 0 3 273 2 272 -145 0 -145 0 0 -145
c0 -84 -5 -154 -11 -168 -13 -29 -48 -47 -89 -47 -78 0 -90 29 -90 215 l0 145
-140 0 -140 0 0 -204z"/>
</g>
</svg>
