<svg width="205" height="29" viewBox="0 0 205 29" fill="none" xmlns="http://www.w3.org/2000/svg">
<path fill-rule="evenodd" clip-rule="evenodd" d="M14.2547 28.1189H0V0.781081H14.1571V5.02821C15.3287 3.6125 18.99 0 25.5316 0L26.1761 0.00641022C31.5891 0.146875 34.8529 2.57728 36.3691 5.46757C38.6635 2.7826 42.813 0 48.6711 0H49.0128C57.8 0 60.6314 5.32111 60.6314 9.81233V28.1189H46.4255V14.1571C46.4255 12.2532 45.498 10.1541 41.9831 10.1541C38.8588 10.1541 37.4431 12.0091 37.4431 14.9382V28.1189H23.1883V14.1571C23.1883 12.2532 22.2608 10.1541 18.7459 10.1541C15.6216 10.1541 14.2547 11.9603 14.2547 14.9382V28.1189ZM91.0448 28.1185H105.202V0.780697H90.9472V13.6197C90.9472 16.744 89.385 18.7456 86.0654 18.7456C82.5994 18.7456 81.4277 16.6464 81.4277 14.1567V0.780697H67.1242V18.4038C67.1242 23.8226 70.4926 28.8996 78.694 28.8996H79.1821C85.4719 28.8996 89.089 26.0517 90.7806 24.1746L91.0448 23.8714V28.1185Z" fill="#1A1A1A"/>
<path fill-rule="evenodd" clip-rule="evenodd" d="M156.076 4.34745V9.22921C156.076 11.0192 155.276 11.9684 153.554 11.9684H153.282C151.533 11.9684 150.747 11.0192 150.747 9.22921V4.36101C150.747 2.62528 151.52 1.64893 153.269 1.64893H153.54C155.33 1.64893 156.076 2.6524 156.076 4.34745ZM122.087 11.8464H121.138L120.189 7.04598C120.053 6.38028 119.951 5.84347 119.866 5.37441L119.606 3.87283C119.628 4.49812 119.638 5.06481 119.643 5.6915L119.646 11.8464H118.114V1.75741H120.528L121.219 5.35092C121.364 6.13743 121.467 6.70094 121.551 7.21423L121.667 7.96809C121.739 7.46183 121.812 6.99173 121.916 6.38503L122.101 5.35092L122.793 1.75741H125.166V11.8464H123.593L123.595 6.4799C123.598 5.78625 123.607 5.20003 123.624 4.60264L123.647 3.87283C123.531 4.5373 123.407 5.20996 123.229 6.11414L122.087 11.8464ZM128.164 1.75741H132.598V3.33042H129.927V5.82554H132.151V7.43923H129.927V10.2327H132.68V11.8464H128.164V1.75741ZM136.627 3.35754V11.8464H138.431V3.35754H140.058V1.75741H134.986V3.35754H136.627ZM144.494 3.11356V5.93413H145.239C145.85 5.93413 146.067 5.58156 146.067 4.93066V4.06279C146.067 3.37121 145.85 3.11356 145.239 3.11356H144.494ZM144.494 11.8464V7.37143H145.239C145.836 7.37143 146.067 7.66976 146.067 8.36134V10.6937C146.067 11.3853 146.148 11.6836 146.243 11.8464H148.006V11.7786C147.911 11.548 147.843 11.1548 147.843 10.6259V8.06301C147.843 7.03242 147.355 6.59848 146.826 6.39508C147.287 6.25947 147.843 5.82554 147.843 4.76782V3.66943C147.843 2.32694 147.192 1.75741 145.89 1.75741H142.717V11.8464H144.494ZM154.259 4.37439V9.24258C154.259 10.002 153.974 10.3817 153.418 10.3817C152.848 10.3817 152.564 10.002 152.564 9.24258V4.37439C152.564 3.52008 152.862 3.22175 153.404 3.22175C153.933 3.22175 154.259 3.52008 154.259 4.37439ZM161.922 7.77824H160.837V11.8464H159.033V1.75741H161.922C163.386 1.75741 164.105 2.29982 164.105 3.91352V5.56789C164.105 7.10022 163.346 7.77824 161.922 7.77824ZM160.837 6.27292V3.1947H161.474C162.112 3.1947 162.315 3.43879 162.315 4.25242V5.20165C162.315 6.05596 162.112 6.27292 161.474 6.27292H160.837ZM172.161 4.34745V9.22921C172.161 11.0192 171.361 11.9684 169.639 11.9684H169.368C167.619 11.9684 166.832 11.0192 166.832 9.22921V4.36101C166.832 2.62528 167.605 1.64893 169.354 1.64893H169.626C171.416 1.64893 172.161 2.6524 172.161 4.34745ZM170.344 4.37439V9.24258C170.344 10.002 170.06 10.3817 169.504 10.3817C168.934 10.3817 168.649 10.002 168.649 9.24258V4.37439C168.649 3.52008 168.948 3.22175 169.49 3.22175C170.019 3.22175 170.344 3.52008 170.344 4.37439ZM175.119 1.75741H176.923V10.192H179.391V11.8464H175.119V1.75741ZM183.854 11.8464V1.75741H182.05V11.8464H183.854ZM189.361 11.9549H189.062C187.476 11.9549 186.635 11.2226 186.635 9.92079V8.21218H188.398V9.59534C188.398 10.1513 188.683 10.4225 189.212 10.4225C189.74 10.4225 190.012 10.0971 190.012 9.44618V9.33769C190.012 8.67323 189.795 8.33422 189.252 7.84605L187.937 6.66629C187.137 5.94758 186.703 5.28312 186.703 4.17117V3.8864C186.703 2.35407 187.544 1.64893 189.157 1.64893H189.442C190.92 1.64893 191.774 2.28627 191.774 3.60163V4.93055H190.039V3.9542C190.039 3.34398 189.795 3.09989 189.306 3.09989C188.778 3.09989 188.533 3.33042 188.533 3.91352V4.00844C188.533 4.6051 188.737 4.88987 189.279 5.39161L190.581 6.58492C191.476 7.41211 191.883 8.00877 191.883 9.21565V9.50042C191.883 10.87 191.151 11.9549 189.361 11.9549ZM120.84 28.2411C122.643 28.2411 123.308 27.2105 123.308 25.7596V18.0301H121.491V25.7324C121.491 26.3291 121.274 26.6681 120.691 26.6681C120.135 26.6681 119.904 26.3155 119.904 25.7324V18.0301H118.087V25.7596C118.087 27.2241 118.738 28.2411 120.541 28.2411H120.84ZM128.042 18.0301L129.479 22.4779C129.687 23.1288 129.829 23.5989 129.944 24.0128L130.103 24.6069C130.071 24.1488 130.048 23.699 130.039 22.7906L130.035 18.0301H131.595V28.1191H130.035L128.408 23.3594C128.144 22.6105 127.971 22.0422 127.849 21.5713L127.757 21.1897C127.803 21.6601 127.839 22.2568 127.849 23.2919L127.852 28.1191H126.279V18.0301H128.042ZM134.593 18.0301V28.1191H137.441C139.068 28.1191 139.719 27.3733 139.719 25.746V20.349C139.719 18.681 139.068 18.0301 137.441 18.0301H134.593ZM136.397 19.4671V26.5864H137.034C137.685 26.5864 137.902 26.2338 137.902 25.5286V20.5248C137.902 19.779 137.698 19.4671 137.061 19.4671H136.397ZM147.138 18.0301H142.704V28.1191H147.219V26.5054H144.467V23.7119H146.69V22.0983H144.467V19.6031H147.138V18.0301ZM151.709 19.386V22.2066H152.455C153.065 22.2066 153.282 21.854 153.282 21.2031V20.3352C153.282 19.6436 153.065 19.386 152.455 19.386H151.709ZM151.709 28.1191V23.6441H152.455C153.052 23.6441 153.282 23.9425 153.282 24.6341V26.9664C153.282 27.658 153.364 27.9564 153.459 28.1191H155.221V28.0513C155.127 27.8208 155.059 27.4275 155.059 26.8986V24.3357C155.059 23.3051 154.571 22.8712 154.042 22.6678C154.503 22.5322 155.059 22.0983 155.059 21.0405V19.9421C155.059 18.5997 154.408 18.0301 153.106 18.0301H149.933V28.1191H151.709ZM160.01 28.2547H159.915C158.667 28.2547 157.962 27.2376 157.962 25.8816V20.4981C157.962 18.9522 158.613 17.9352 160.403 17.9352H160.688C162.546 17.9352 163.061 18.9522 163.061 20.4303V21.0947H161.325V20.5252C161.325 19.8336 161.108 19.4946 160.552 19.4946C160.037 19.4946 159.779 19.8336 159.779 20.5252V25.5697C159.779 26.2613 160.01 26.6816 160.62 26.6816C161.257 26.6816 161.474 26.2341 161.474 25.5832V23.6983H160.498V22.1525H163.142V28.119H162.044C162.034 28.0882 162.017 28.0349 161.996 27.966L161.996 27.9654L161.996 27.9653C161.955 27.8298 161.895 27.6345 161.827 27.4326L161.719 27.1291C161.542 27.4817 161.027 28.2547 160.01 28.2547ZM167.876 22.2066V19.386H168.622C169.232 19.386 169.449 19.6436 169.449 20.3352V21.2031C169.449 21.854 169.232 22.2066 168.622 22.2066H167.876ZM167.876 23.6441V28.1191H166.1V18.0301H169.273C170.575 18.0301 171.226 18.5997 171.226 19.9421V21.0405C171.226 22.0983 170.67 22.5322 170.209 22.6678C170.738 22.8712 171.226 23.3051 171.226 24.3357V26.8986C171.226 27.4275 171.294 27.8208 171.389 28.0513V28.1191H169.626C169.531 27.9564 169.449 27.658 169.449 26.9664V24.6341C169.449 23.9425 169.219 23.6441 168.622 23.6441H167.876ZM179.458 25.5016V20.6199C179.458 18.9248 178.713 17.9213 176.923 17.9213H176.651C174.902 17.9213 174.129 18.8977 174.129 20.6334V25.5016C174.129 27.2916 174.916 28.2408 176.665 28.2408H176.936C178.658 28.2408 179.458 27.2916 179.458 25.5016ZM177.641 25.5153V20.6471C177.641 19.7928 177.316 19.4945 176.787 19.4945C176.245 19.4945 175.946 19.7928 175.946 20.6471V25.5153C175.946 26.2747 176.231 26.6544 176.801 26.6544C177.357 26.6544 177.641 26.2747 177.641 25.5153ZM184.843 28.2411H185.142C186.945 28.2411 187.61 27.2105 187.61 25.7596V18.0301H185.793V25.7324C185.793 26.3291 185.576 26.6681 184.993 26.6681C184.437 26.6681 184.206 26.3155 184.206 25.7324V18.0301H182.389V25.7596C182.389 27.2241 183.04 28.2411 184.843 28.2411ZM192.344 18.0301L193.781 22.4779C194.024 23.2373 194.176 23.7506 194.302 24.2156L194.405 24.6069C194.373 24.1488 194.35 23.699 194.341 22.7906L194.337 18.0301H195.897V28.1191H194.337L192.505 22.7598C192.352 22.2937 192.238 21.9076 192.152 21.5713L192.059 21.1897C192.113 21.7457 192.154 22.4779 192.154 23.9018V28.1191H190.581V18.0301H192.344ZM198.895 18.0301V28.1191H201.743C203.37 28.1191 204.021 27.3733 204.021 25.746V20.349C204.021 18.681 203.37 18.0301 201.743 18.0301H198.895ZM200.699 19.4671V26.5864H201.336C201.987 26.5864 202.204 26.2338 202.204 25.5286V20.5248C202.204 19.779 202 19.4671 201.363 19.4671H200.699Z" fill="#1A1A1A"/>
</svg>
