<svg width="88" height="24" viewBox="0 0 88 24" fill="none" xmlns="http://www.w3.org/2000/svg">
<path fill-rule="evenodd" clip-rule="evenodd" d="M11.8378 23.3514H0V0.648649H11.7568V4.17568C12.7297 3 15.7703 0 21.2027 0L21.7379 0.00532337C26.2332 0.121972 28.9436 2.1403 30.2027 4.54054C32.1081 2.31081 35.5541 0 40.4189 0H40.7027C48 0 50.3514 4.41892 50.3514 8.14865V23.3514H38.5541V11.7568C38.5541 10.1757 37.7838 8.43243 34.8649 8.43243C32.2703 8.43243 31.0946 9.97297 31.0946 12.4054V23.3514H19.2568V11.7568C19.2568 10.1757 18.4865 8.43243 15.5676 8.43243C12.973 8.43243 11.8378 9.93243 11.8378 12.4054V23.3514ZM75.6081 23.3511H87.3649V0.648427H75.527V11.3106C75.527 13.9052 74.2297 15.5673 71.473 15.5673C68.5946 15.5673 67.6216 13.8241 67.6216 11.7565V0.648427H55.7433V15.2836C55.7433 19.7836 58.5406 23.9998 65.3514 23.9998H65.7568C70.9801 23.9998 73.9839 21.6347 75.3887 20.0759L75.6081 19.8241V23.3511Z" fill="#1A1A1A"/>
</svg>
